<svg xmlns="http://www.w3.org/2000/svg">
	<symbol id="icon-github" viewBox="0 0 48 47">
		<path d="M24 0C10.745 0 0 10.787 0 24.097c0 10.644 6.876 19.675 16.414 22.86 1.2.223 1.64-.52 1.64-1.16 0-.572-.022-2.087-.035-4.097-6.677 1.456-8.086-3.23-8.086-3.23-1.09-2.784-2.664-3.525-2.664-3.525-2.18-1.495.166-1.465.166-1.465 2.407.17 3.675 2.483 3.675 2.483 2.143 3.683 5.618 2.62 6.986 2.002.217-1.557.838-2.62 1.524-3.22-5.33-.61-10.932-2.676-10.932-11.91 0-2.63.934-4.78 2.47-6.465-.247-.61-1.07-3.06.235-6.377 0 0 2.016-.647 6.6 2.47 1.915-.534 3.967-.8 6.008-.81 2.04.01 4.093.276 6.01.81 4.58-3.117 6.593-2.47 6.593-2.47 1.31 3.318.486 5.767.238 6.377 1.54 1.685 2.47 3.835 2.47 6.466 0 9.256-5.613 11.293-10.96 11.89.862.744 1.63 2.213 1.63 4.462 0 3.22-.03 5.82-.03 6.61 0 .644.433 1.394 1.65 1.157C41.13 43.763 48 34.738 48 24.097 48 10.787 37.254 0 24 0"/>
	</symbol>
	<symbol id="icon-codepen" viewBox="0 0 120 120">
		<path d="M60.048 0C26.884 0 0 26.9 0 60.048s26.884 60 60 60.047c33.163 0 60.047-26.883 60.047-60.047 S93.211 0 60 0z M60.048 110.233c-27.673 0-50.186-22.514-50.186-50.186S32.375 9.9 60 9.9 c27.672 0 50.2 22.5 50.2 50.186S87.72 110.2 60 110.233z"/>
		<path d="M97.147 48.319c-0.007-0.047-0.019-0.092-0.026-0.139c-0.016-0.09-0.032-0.18-0.056-0.268 c-0.014-0.053-0.033-0.104-0.05-0.154c-0.025-0.078-0.051-0.156-0.082-0.232c-0.021-0.053-0.047-0.105-0.071-0.156 c-0.033-0.072-0.068-0.143-0.108-0.211c-0.029-0.051-0.061-0.1-0.091-0.148c-0.043-0.066-0.087-0.131-0.135-0.193 c-0.035-0.047-0.072-0.094-0.109-0.139c-0.051-0.059-0.104-0.117-0.159-0.172c-0.042-0.043-0.083-0.086-0.127-0.125 c-0.059-0.053-0.119-0.104-0.181-0.152c-0.048-0.037-0.095-0.074-0.145-0.109c-0.019-0.012-0.035-0.027-0.053-0.039L61.817 23.5 c-1.072-0.715-2.468-0.715-3.54 0L24.34 46.081c-0.018 0.012-0.034 0.027-0.053 0.039c-0.05 0.035-0.097 0.072-0.144 0.1 c-0.062 0.049-0.123 0.1-0.181 0.152c-0.045 0.039-0.086 0.082-0.128 0.125c-0.056 0.055-0.108 0.113-0.158 0.2 c-0.038 0.045-0.075 0.092-0.11 0.139c-0.047 0.062-0.092 0.127-0.134 0.193c-0.032 0.049-0.062 0.098-0.092 0.1 c-0.039 0.068-0.074 0.139-0.108 0.211c-0.024 0.051-0.05 0.104-0.071 0.156c-0.031 0.076-0.057 0.154-0.082 0.2 c-0.017 0.051-0.035 0.102-0.05 0.154c-0.023 0.088-0.039 0.178-0.056 0.268c-0.008 0.047-0.02 0.092-0.025 0.1 c-0.019 0.137-0.029 0.275-0.029 0.416V71.36c0 0.1 0 0.3 0 0.418c0.006 0 0 0.1 0 0.1 c0.017 0.1 0 0.2 0.1 0.268c0.015 0.1 0 0.1 0.1 0.154c0.025 0.1 0.1 0.2 0.1 0.2 c0.021 0.1 0 0.1 0.1 0.154c0.034 0.1 0.1 0.1 0.1 0.213c0.029 0 0.1 0.1 0.1 0.1 c0.042 0.1 0.1 0.1 0.1 0.193c0.035 0 0.1 0.1 0.1 0.139c0.05 0.1 0.1 0.1 0.2 0.2 c0.042 0 0.1 0.1 0.1 0.125c0.058 0.1 0.1 0.1 0.2 0.152c0.047 0 0.1 0.1 0.1 0.1 c0.019 0 0 0 0.1 0.039L58.277 96.64c0.536 0.4 1.2 0.5 1.8 0.537c0.616 0 1.233-0.18 1.77-0.537 l33.938-22.625c0.018-0.012 0.034-0.027 0.053-0.039c0.05-0.035 0.097-0.072 0.145-0.109c0.062-0.049 0.122-0.1 0.181-0.152 c0.044-0.039 0.085-0.082 0.127-0.125c0.056-0.055 0.108-0.113 0.159-0.172c0.037-0.045 0.074-0.09 0.109-0.139 c0.048-0.062 0.092-0.127 0.135-0.193c0.03-0.049 0.062-0.098 0.091-0.146c0.04-0.07 0.075-0.141 0.108-0.213 c0.024-0.051 0.05-0.102 0.071-0.154c0.031-0.078 0.057-0.156 0.082-0.234c0.017-0.051 0.036-0.102 0.05-0.154 c0.023-0.088 0.04-0.178 0.056-0.268c0.008-0.045 0.02-0.092 0.026-0.137c0.018-0.139 0.028-0.277 0.028-0.418V48.735 C97.176 48.6 97.2 48.5 97.1 48.319z M63.238 32.073l25.001 16.666L77.072 56.21l-13.834-9.254V32.073z M56.856 32.1 v14.883L43.023 56.21l-11.168-7.471L56.856 32.073z M29.301 54.708l7.983 5.34l-7.983 5.34V54.708z M56.856 88.022L31.855 71.4 l11.168-7.469l13.833 9.252V88.022z M60.048 67.597l-11.286-7.549l11.286-7.549l11.285 7.549L60.048 67.597z M63.238 88.022V73.14 l13.834-9.252l11.167 7.469L63.238 88.022z M90.794 65.388l-7.982-5.34l7.982-5.34V65.388z"/>
	</symbol>
	<symbol id="icon-twitter" viewBox="0 0 56.693 56.693">
		<path d="M54.082 15.55c-1.812.804-3.76 1.347-5.805 1.59 2.087-1.25 3.69-3.23 4.444-5.59-1.952 1.158-4.114 2-6.417 2.453-1.843-1.965-4.47-3.192-7.377-3.192-5.58 0-10.107 4.526-10.107 10.108 0 .792.09 1.563.26 2.302-8.4-.42-15.847-4.444-20.83-10.56-.87 1.493-1.37 3.23-1.37 5.082 0 3.506 1.785 6.6 4.497 8.412-1.657-.053-3.216-.507-4.578-1.264-.002.042-.002.084-.002.128 0 4.896 3.484 8.98 8.108 9.91-.848.23-1.74.354-2.663.354-.652 0-1.285-.063-1.902-.18 1.288 4.014 5.02 6.936 9.442 7.018-3.46 2.71-7.817 4.326-12.552 4.326-.816 0-1.62-.048-2.41-.14 4.473 2.867 9.785 4.54 15.492 4.54 18.59 0 28.756-15.4 28.756-28.757 0-.438-.01-.875-.028-1.308 1.974-1.425 3.688-3.205 5.042-5.232z"/>
	</symbol>
	<symbol id="icon-linkedin" viewBox="0 0 56.693 56.693">
		<path d="M30.07 27.1v-.076c-.015.026-.032.052-.05.077h.05z"/><path d="M49.265 4.667H7.145c-2.016 0-3.65 1.596-3.65 3.563v42.613c0 1.966 1.634 3.562 3.65 3.562h42.12c2.02 0 3.654-1.597 3.654-3.562V8.23c0-1.968-1.637-3.563-3.655-3.563zm-30.79 41.637H11.01v-22.46h7.465v22.46zm-3.732-25.527h-.05c-2.504 0-4.124-1.725-4.124-3.88 0-2.203 1.67-3.88 4.222-3.88 2.554 0 4.125 1.677 4.175 3.88 0 2.155-1.622 3.88-4.224 3.88zm30.65 25.527H37.93V34.286c0-3.018-1.08-5.078-3.782-5.078-2.062 0-3.29 1.39-3.83 2.73-.198.48-.246 1.15-.246 1.822v12.543h-7.465s.098-20.354 0-22.46h7.465v3.18c.992-1.53 2.766-3.71 6.73-3.71 4.91 0 8.593 3.212 8.593 10.11v12.88z"/>
	</symbol>
</svg>
